<?xml version="1.0" encoding="UTF-8"?>
<svg width="271px" height="54px" viewBox="0 0 271 54" version="1.1" xmlns="http://www.w3.org/2000/svg" xmlns:xlink="http://www.w3.org/1999/xlink">
    <!-- Generator: Sketch 51.3 (57544) - http://www.bohemiancoding.com/sketch -->
    <title>Artboard</title>
    <desc>Created with Sketch.</desc>
    <defs></defs>
    <g id="Artboard" stroke="none" stroke-width="1" fill="none" fill-rule="evenodd">
        <g id="Group-20" transform="translate(7.000000, 11.000000)">
            <g id="Colour">
                <g id="Zip/Navy" transform="translate(42.206727, 0.000000)" fill="#21285E" fill-rule="nonzero">
                    <path d="M2.19593945,27.7403243 C1.60746001,27.7624377 1.03813696,27.5260254 0.633618142,27.0915676 C0.237612287,26.6529709 0.0264295737,26.0744458 0.0452584387,25.4797838 C0.0397383238,24.880849 0.185589203,24.2904814 0.468877425,23.7650811 C0.717755198,23.2952832 1.02168457,22.8577646 1.3740462,22.4620541 L10.1197869,12.4237838 L2.49645548,12.4237838 C1.75783776,12.4237838 1.22921919,12.1664865 0.939565187,11.6555676 C0.657542,11.1423156 0.516842291,10.561445 0.532239239,9.97394595 C0.511873689,9.40773744 0.672550685,8.85004222 0.990254639,8.38421622 C1.30515315,7.94337916 1.81763343,7.69326494 2.35343881,7.71891892 L15.8223502,7.71891892 C16.391825,7.69228244 16.9472175,7.90346938 17.3593267,8.30335135 C17.741308,8.69113514 17.9350141,9.24248649 17.9350141,9.94086486 C17.9511367,10.4846946 17.8394342,11.0246017 17.6091533,11.5158919 C17.388175,11.9439325 17.1110867,12.3396036 16.7854497,12.6921081 L7.67764154,23.0336216 L16.3075206,23.0336216 C16.8266866,23.020503 17.3209132,23.2594241 17.6381187,23.6768649 C17.9761108,24.1435755 18.1466728,24.7136186 18.1214789,25.2923243 C18.1461212,25.8952586 18.0037507,26.4931288 17.7105322,27.0180541 C17.4154472,27.4977297 16.8922597,27.7421622 16.1572626,27.7421622 L2.19593945,27.7403243 Z" id="Shape"></path>
                    <path d="M23.3533544,28.004973 C20.9564675,28.004973 20.4568143,26.7552432 20.4568143,25.7076757 L20.4568143,10.4168649 C20.4568143,9.61740541 20.6939685,8.97048649 21.1646563,8.49448649 C21.635344,8.01848649 22.3848238,7.77589189 23.3949921,7.77589189 C24.2458508,7.77589189 24.9192963,7.97254054 25.3990358,8.36216216 C25.8787752,8.75178378 26.1448949,9.38032432 26.1448949,10.188973 L26.1448949,25.6268108 C26.1448949,26.4667027 25.8842063,27.0842162 25.3700704,27.4646486 C24.8559345,27.8450811 24.1951613,28.004973 23.3533544,28.004973 Z M23.3533544,6.1347027 C22.4192202,6.1347027 21.6534474,5.85718919 21.0741394,5.30951351 C20.4948314,4.76183784 20.192505,4.00648649 20.192505,3.07837838 C20.1702554,2.25557581 20.4887253,1.46097226 21.0705187,0.887675676 C21.6443957,0.316108108 22.4137892,0.0238918919 23.3533544,0.0238918919 C24.1281542,0.025607189 24.8812845,0.283690211 25.4986044,0.759027027 C26.1720499,1.26259459 26.5142037,2.04551351 26.5142037,3.08572973 C26.5142037,4.01383784 26.2173084,4.76551351 25.6325693,5.3187027 C25.0478303,5.87189189 24.2820575,6.14021622 23.3533544,6.14021622 L23.3533544,6.1347027 Z" id="Shape"></path>
                    <path d="M32.3941801,33.8642792 C30.1529822,33.8642792 29.6786738,32.59432 29.6786738,31.5283628 L29.6786738,9.89862409 C29.6593254,9.22114494 29.9160622,8.56555696 30.3883261,8.08649711 C30.8572035,7.61049215 31.6084936,7.36789503 32.6186619,7.36789503 C33.2469678,7.36141469 33.8676855,7.5076103 34.4289995,7.79427784 C35.0246005,8.10487567 35.3341683,8.71320634 35.3341683,9.58618841 C35.4548575,9.44528603 35.5845982,9.30070796 35.7233908,9.15245416 C36.1038593,8.76036514 36.5293151,8.41606065 36.9906271,8.12692996 C38.111876,7.41644722 39.410999,7.04892431 40.7325948,7.06832434 C41.9990492,7.04334484 43.2537473,7.31899293 44.396718,7.8733057 C45.4427356,8.39749349 46.3534615,9.1628287 47.0561039,10.1081398 C47.7883628,11.1192336 48.3230002,12.2634062 48.6310975,13.4787695 C48.9835413,14.8520809 49.1564043,16.2665126 49.1452334,17.6856241 C49.1581764,19.1311806 48.9592773,20.5706537 48.5550634,21.9568038 C48.1978917,23.1880956 47.6116347,24.3385056 46.8280013,25.345812 C46.072942,26.2949489 45.1161253,27.0583409 44.0292195,27.5788083 C42.8465528,28.129358 41.5573732,28.4037992 40.256476,28.3819517 C39.3853031,28.4073525 38.5161676,28.2830781 37.6857967,28.0143803 C37.0894505,27.8091258 36.5226663,27.5242069 36.0003725,27.1671282 C35.7172842,26.9719947 35.4562283,26.7457997 35.2219273,26.4926348 L35.2219273,31.4180915 C35.2219273,32.2745329 34.9920145,32.9067557 34.5376197,33.2963814 C34.083225,33.6860071 33.3844347,33.8642792 32.3941801,33.8642792 Z M39.2843248,11.9680511 C38.6674622,11.9529037 38.0571323,12.0991032 37.5120043,12.392596 C36.9990213,12.6879028 36.5593645,13.09841 36.2266647,13.5927166 C35.8528817,14.1519783 35.5800972,14.7742955 35.4210645,15.4305736 C35.2336976,16.1932234 35.1418521,16.9768236 35.1477035,17.7628141 C35.1477035,19.5528869 35.509771,20.9882531 36.233906,22.030318 C36.958041,23.0723829 37.9410543,23.5594151 39.2915661,23.5594151 C40.6420779,23.5594151 41.6250912,23.0374636 42.3075885,21.9623173 C42.9900857,20.8871709 43.3539636,19.4554804 43.3539636,17.7628141 C43.3562281,16.9788947 43.2613456,16.1977996 43.0715509,15.437925 C42.9124949,14.7844763 42.645622,14.1630781 42.2822438,13.6000681 C41.9590283,13.105081 41.5247165,12.6950311 41.0150075,12.4036232 C40.4845686,12.1098594 39.8885036,11.9598438 39.2843248,11.9680511 Z" id="Shape"></path>
                </g>
                <g id="Icon/ColourPrimary" fill-rule="nonzero">
                    <g id="Group">
                        <path d="M34.0559475,12.7325405 L26.3631255,19.5472432 L7.3102338,19.5472432 C5.53307216,19.5448851 3.81643894,20.1828964 2.48402379,21.340973 L12.0935193,12.8262703 L12.2409557,12.6976216 L24.2803527,2.02162162 C26.2216216,0.301996123 28.9470369,-0.267134284 31.4299611,0.528616318 C33.9128853,1.32436692 35.776103,3.36410508 36.3177585,5.87948119 C36.8594138,8.39485728 35.9972164,11.0037259 34.0559475,12.7233514 L34.0559475,12.7325405 Z" id="Shape" fill="#F15C3E"></path>
                        <ellipse id="Oval" fill="#F8991C" cx="7.3102338" cy="7.38259459" rx="7.3102338" ry="7.19881081"></ellipse>
                        <path d="M7.3102338,19.5472432 C5.53307216,19.5448851 3.81643894,20.1828964 2.48402379,21.340973 L2.42243642,21.3961081 C-0.579020416,24.0544189 -0.823840537,28.6054806 1.87561537,31.561189 C4.57507128,34.5168976 9.19657422,34.7579863 12.1980312,32.0996757 L26.3649918,19.5490811 L7.3102338,19.5472432 Z" id="Shape" fill="#21285E"></path>
                        <path d="M26.3532842,19.5527564 L12.1848362,32.103351 C10.8432399,33.2913742 9.10138788,33.9463373 7.29716953,33.9413074 L29.1563677,33.9411888 C33.3727172,33.8748386 36.3496098,30.7510447 36.3496098,26.7432969 C36.3496098,22.7355493 33.1475422,19.6082119 29.1563677,19.545405 L26.3532842,19.5527564 Z" id="Shape" fill="#00AEB8"></path>
                    </g>
                </g>
                <g id="Trade/Navy" transform="translate(92.854799, 5.666667)" fill="#21285E">
                    <g id="Registration-Mark">
                        <path d="M1.06614108,0.488108743 L1.06614108,2.41932324 C1.06614108,2.47572724 1.05184641,2.52416038 1.02325663,2.56462413 C0.994666854,2.60508789 0.943206025,2.62531944 0.8688726,2.62531944 C0.733547647,2.62531944 0.665886187,2.55665472 0.665886187,2.41932324 L0.665886187,0.488108743 L0.182721345,0.488108743 C0.127447773,0.488108743 0.0883756619,0.466037941 0.065503839,0.421895675 C0.0426320163,0.377753409 0.0311962763,0.326254872 0.0311962763,0.267398516 C0.0311962763,0.208542162 0.0431085055,0.157043624 0.0669333208,0.112901357 C0.0907581364,0.0687590911 0.127447802,0.0466882891 0.177003418,0.0466882891 L1.57789556,0.0466882891 C1.62554519,0.0466882891 1.66175837,0.0687590911 1.68653618,0.112901357 C1.71131399,0.157043624 1.7237027,0.208542162 1.7237027,0.267398516 C1.7237027,0.326254872 1.71226696,0.377753409 1.68939514,0.421895675 C1.66652332,0.466037941 1.62745121,0.488108743 1.57217764,0.488108743 L1.06614108,0.488108743 Z M3.67637483,0.815495582 L3.22465858,2.42300174 C3.2075047,2.48676279 3.18034482,2.53151746 3.14317811,2.55726712 C3.1060114,2.58301679 3.06360386,2.59589141 3.01595424,2.59589141 C2.94733877,2.59589141 2.89587794,2.57811217 2.8615702,2.5425531 C2.82726246,2.50699406 2.80057908,2.45733475 2.78151922,2.3935737 L2.35553366,0.936886207 L2.35553366,2.41932324 C2.35553366,2.47572724 2.34171547,2.52416038 2.31407867,2.56462413 C2.28644189,2.60508789 2.23545756,2.62531944 2.16112414,2.62531944 C2.09060268,2.62531944 2.04152429,2.60815327 2.01388751,2.5738204 C1.98625071,2.53948751 1.97243254,2.48431051 1.97243254,2.40828772 L1.97243254,0.28946954 C1.97243254,0.198732659 1.99625699,0.133746408 2.04390662,0.0945088383 C2.09155626,0.0552712684 2.15635878,0.0356527778 2.23831615,0.0356527778 C2.3221795,0.0356527778 2.38650552,0.0558843463 2.43129618,0.0963480903 C2.47608684,0.136811834 2.50801161,0.193828073 2.52707147,0.267398516 L3.01595424,2.06986537 L3.48482426,0.282112533 C3.50769608,0.193827999 3.54438575,0.130680982 3.59489435,0.0926695866 C3.64540296,0.0546581906 3.71449389,0.0356527778 3.80216922,0.0356527778 C3.88222059,0.0356527778 3.94511717,0.0546581906 3.99086082,0.0926695866 C4.03660445,0.130680982 4.05947593,0.188923376 4.05947593,0.267398516 L4.05947593,2.41932324 C4.05947593,2.47572724 4.04565776,2.52416038 4.01802096,2.56462413 C3.99038417,2.60508789 3.93939984,2.62531944 3.86506642,2.62531944 C3.79645094,2.62531944 3.74784905,2.60631403 3.71925926,2.56830262 C3.69066949,2.53029124 3.67637483,2.47572731 3.67637483,2.40460922 L3.67637483,0.815495582 Z" id="TM"></path>
                    </g>
                </g>
            </g>
        </g>
        <text id="own-it-now,-pay-late" font-family="Rubik-Medium, Rubik" font-size="16" font-weight="400" letter-spacing="-0.369230777" fill="#21285E">
            <tspan x="124" y="33">own</tspan>
            <tspan x="155.276308" y="33" font-family="Rubik-Regular, Rubik" font-weight="normal"> </tspan>
            <tspan x="158.843077" y="33" font-family="Rubik-Light, Rubik" font-weight="300">it now, pay later</tspan>
        </text>
        <path d="M114,19 L114,38" id="Line-2" stroke="#00AEB8" stroke-width="3" stroke-linecap="round"></path>
    </g>
</svg>